
<svg enable-background="new 0 0 64 64" id="Layer_1" version="1.1" viewBox="0 0 64 64" xml:space="preserve" xmlns="http://www.w3.org/2000/svg" xmlns:xlink="http://www.w3.org/1999/xlink">
  <path d="M32.625,49.227c-0.406,0-0.788-0.249-0.938-0.652c-0.192-0.518,0.071-1.094,0.589-1.286  c6.388-2.374,15.336-14.481,15.217-22.634c-0.053-3.597-1.823-6.012-5.264-7.177c-2.046-0.694-4.209-0.39-6.09,0.856  c-2.08,1.378-3.433,3.708-3.619,6.23c-0.041,0.55-0.51,0.962-1.071,0.923c-0.551-0.041-0.964-0.52-0.923-1.071  c0.231-3.135,1.917-6.033,4.509-7.75c2.372-1.573,5.229-1.968,7.836-1.084c4.267,1.446,6.557,4.573,6.622,9.042  c0.135,9.252-9.345,21.872-16.52,24.539C32.858,49.206,32.74,49.227,32.625,49.227z"/>
  <path d="M32.624,49.226c-0.14,0-0.281-0.029-0.416-0.091c-9.644-4.42-17.416-14.588-17.694-23.149  c-0.149-4.594,1.834-8.136,5.737-10.241c5.045-2.723,9.917,0.604,12.506,5.11c0.275,0.479,0.11,1.09-0.369,1.365  c-0.478,0.274-1.09,0.109-1.365-0.369c-1.572-2.734-5.407-6.728-9.823-4.347c-4.03,2.175-4.773,5.777-4.688,8.416  c0.256,7.867,7.516,17.265,16.529,21.396c0.502,0.23,0.723,0.824,0.493,1.326C33.365,49.01,33.003,49.226,32.624,49.226z"/>
</svg>
