<svg enable-background="new 0 0 64 64" id="Layer_1" version="1.1" viewBox="0 0 64 64" xml:space="preserve" xmlns="http://www.w3.org/2000/svg" xmlns:xlink="http://www.w3.org/1999/xlink">
  <g>
    <path d="M14.367,29.066c-0.286,0-0.569-0.122-0.767-0.358c-0.354-0.423-0.299-1.054,0.125-1.409   c2.545-2.133,5.261-4.543,7.888-6.874c1.677-1.488,3.355-2.978,5.009-4.415c0.345-0.3,0.662-0.58,0.955-0.839   c3.709-3.278,4.542-3.5,9.089,0.267c2.963,2.455,6.442,5.377,9.783,8.443c0.509,0.468,1.028,0.91,1.541,1.347   c0.794,0.677,1.615,1.377,2.359,2.137c0.386,0.395,0.379,1.028-0.015,1.415c-0.396,0.386-1.028,0.379-1.415-0.015   c-0.681-0.696-1.432-1.336-2.228-2.015c-0.531-0.453-1.068-0.911-1.595-1.395c-3.308-3.035-6.763-5.938-9.707-8.376   c-3.527-2.922-3.528-2.924-6.489-0.309c-0.297,0.263-0.618,0.546-0.968,0.85c-1.648,1.432-3.322,2.917-4.994,4.4   c-2.637,2.34-5.364,4.76-7.93,6.911C14.821,28.989,14.593,29.066,14.367,29.066z"/>
    <path d="M31.51,51.268c-5.618,0-11.446-1.075-13.066-4.022c-3.013-5.482-0.421-22.703-0.309-23.433   c0.083-0.546,0.599-0.916,1.14-0.837c0.546,0.083,0.921,0.594,0.837,1.14c-1.059,6.921-1.911,18.535,0.085,22.167   c2.153,3.917,17.467,3.468,21.286,1.515c2.095-1.072,2.644-3.653,2.736-5.629c0.196-4.224,0.176-7.599,0.149-11.872   c-0.011-1.739-0.022-3.638-0.021-5.818c0-0.552,0.448-1,1-1h0c0.552,0,1,0.448,1,1c-0.001,2.176,0.011,4.07,0.021,5.805   c0.026,4.303,0.047,7.701-0.151,11.978c-0.117,2.505-0.875,5.809-3.823,7.317C40.466,50.563,36.057,51.268,31.51,51.268z"/>
    <path d="M32.105,37.484l-0.208-0.004c-1.229-0.049-2.982-0.538-3.957-1.375c-0.821-0.707-1.826-1.695-2.306-3.083   c-0.709-2.052-0.429-4.124,0.79-5.834c1.332-1.871,3.597-3.033,5.909-3.033c2.1,0,3.945,0.953,5.195,2.682   c1.424,1.972,1.624,4.863,0.474,6.874C36.93,35.588,34.69,37.484,32.105,37.484z M32.334,26.154c-1.651,0-3.332,0.861-4.28,2.193   c-0.589,0.827-1.159,2.196-0.528,4.021c0.323,0.935,1.088,1.678,1.719,2.22c0.563,0.484,1.893,0.86,2.733,0.894l0.128,0.002   c1.773,0,3.4-1.435,4.162-2.767c0.767-1.341,0.613-3.366-0.358-4.71C34.802,26.476,33.354,26.154,32.334,26.154z"/>
  </g>
</svg>
