<svg enable-background="new 0 0 64 64" id="Layer_1" version="1.1" viewBox="0 0 64 64" xml:space="preserve" xmlns="http://www.w3.org/2000/svg" xmlns:xlink="http://www.w3.org/1999/xlink">
  <path d="M32.102,33.77c-1.969,0-3.783-0.647-4.978-1.775c-1.859-1.757-2.732-4.22-2.333-6.589c0.386-2.292,1.885-4.183,4.113-5.188  c1.04-0.469,2.109-0.707,3.177-0.707c2.864,0,5.468,1.733,6.633,4.417c1.163,2.676,0.597,5.622-1.513,7.88  C36.037,33.055,34.178,33.77,32.102,33.77z M32.081,21.512c-0.782,0-1.574,0.178-2.354,0.53c-1.61,0.726-2.69,2.073-2.964,3.696  c-0.287,1.709,0.36,3.505,1.734,4.803c0.815,0.77,2.163,1.229,3.604,1.229c1.502,0,2.862-0.496,3.639-1.327  c1.571-1.683,1.987-3.767,1.14-5.718C36.032,22.773,34.148,21.512,32.081,21.512z"/>
  <path d="M31.994,47.045c-5.903,0-12.091-10.026-12.776-11.169c-3.075-5.122-4.86-13.21,0.228-19.147  c2.953-3.445,7.429-5.42,12.281-5.42c6.99,0,12.988,3.904,15.28,9.946c1.199,3.159,0.978,7.451-0.553,10.68  c-2.237,4.723-6.481,10.958-11.684,14.291C33.922,46.77,32.987,47.045,31.994,47.045z M31.727,13.308  c-4.268,0-8.19,1.721-10.762,4.722c-4.396,5.129-2.765,12.265-0.032,16.816c2.117,3.527,7.153,10.199,11.062,10.199  c0.613,0,1.169-0.165,1.697-0.504c4.847-3.105,8.837-8.991,10.956-13.464c1.291-2.725,1.492-6.473,0.49-9.114  C43.143,16.706,37.878,13.308,31.727,13.308z"/>
  <path d="M39.182,52.404c-1.165,0-3.773-0.023-6.519-0.048c-3.042-0.027-6.252-0.056-7.845-0.056c-0.553,0-1-0.448-1-1s0.447-1,1-1  c1.596,0,4.813,0.029,7.862,0.056c2.738,0.025,5.34,0.048,6.501,0.048c0.553,0,1,0.448,1,1S39.734,52.404,39.182,52.404z"/>
</svg>
