<svg enable-background="new 0 0 64 64" id="Layer_1" version="1.1" viewBox="0 0 64 64" xml:space="preserve" xmlns="http://www.w3.org/2000/svg" xmlns:xlink="http://www.w3.org/1999/xlink">
  <path d="M32.023,35.013c-3.036,0-6.191-1.38-8.441-3.69c-3.508-3.603-4.127-9.683-1.439-14.141c0.489-0.81,1.499-2.313,2.772-3.295  c0.954-0.736,2.174-1.35,3.346-1.681c1.111-0.315,2.3-0.475,3.534-0.475c3.508,0,6.79,1.307,8.78,3.495  c2.565,2.822,3.555,6.899,2.582,10.643c-0.334,1.282-0.724,2.287-1.191,3.074c-0.665,1.121-1.629,2.242-2.645,3.076  c-1.776,1.461-3.373,2.327-5.024,2.726C33.564,34.923,32.8,35.013,32.023,35.013z M31.795,13.731c-1.05,0-2.055,0.134-2.989,0.398  c-0.923,0.261-1.92,0.762-2.669,1.34c-0.742,0.572-1.573,1.573-2.281,2.745c-2.233,3.704-1.734,8.739,1.16,11.713  c2.345,2.407,5.883,3.578,8.812,2.874c1.347-0.326,2.689-1.065,4.225-2.327c0.843-0.692,1.644-1.623,2.194-2.553  c0.365-0.614,0.693-1.475,0.976-2.557c0.805-3.096-0.01-6.466-2.127-8.793C37.478,14.793,34.749,13.731,31.795,13.731z"/>
  <path d="M31.927,52.269c-0.4,0-1.165-0.033-1.788-0.259c-0.504-0.182-1.74-0.725-2.327-1.844c-0.281-0.538-0.589-1.379-0.606-2.129  c-0.007-0.309-0.031-0.614-0.055-0.92c-0.027-0.357-0.055-0.715-0.062-1.074c-0.024-1.395-0.032-2.786-0.024-4.181  c0.002-0.486,0.008-0.928,0.059-1.383c0.096-0.848,0.564-2.022,1.568-2.551c0.705-0.371,1.427-0.536,2.342-0.536l0.383,0.001  l1.535-0.007c0.274,0,0.541,0.002,0.788,0.008c1.049,0.025,2.143,0.674,2.66,1.577c0.49,0.853,0.479,1.84,0.472,2.634  c-0.002,0.154-0.004,0.306-0.001,0.452c0.007,0.419,0.019,0.841,0.031,1.266c0.049,1.702,0.1,3.463-0.196,5.184  c-0.092,0.535-0.207,1.2-0.667,1.797c-0.494,0.64-1.019,1.083-1.652,1.396c-0.645,0.319-1.355,0.512-2.056,0.558  C32.205,52.265,32.069,52.269,31.927,52.269z M31.083,39.393c-0.64,0-1.048,0.089-1.46,0.306c-0.237,0.125-0.463,0.566-0.512,1.004  c-0.04,0.356-0.045,0.741-0.047,1.171c-0.008,1.38,0,2.756,0.024,4.135c0.006,0.319,0.031,0.637,0.056,0.954  c0.026,0.343,0.053,0.686,0.061,1.029c0.007,0.317,0.166,0.842,0.378,1.246c0.176,0.334,0.66,0.685,1.234,0.892  c0.288,0.104,0.911,0.164,1.384,0.132c0.438-0.028,0.888-0.151,1.299-0.354c0.355-0.176,0.65-0.43,0.954-0.824  c0.146-0.189,0.206-0.485,0.28-0.914c0.262-1.523,0.214-3.183,0.167-4.787c-0.012-0.434-0.024-0.864-0.031-1.291  c-0.003-0.163-0.001-0.333,0.001-0.506c0.006-0.607,0.013-1.236-0.206-1.617c-0.17-0.297-0.625-0.564-0.975-0.572  c-0.231-0.006-0.481-0.008-0.739-0.008l-1.535,0.007l-0.331-0.001C31.084,39.393,31.084,39.393,31.083,39.393z"/>
  <path d="M29.809,39.138c-0.002,0-0.005,0-0.007,0c-0.552-0.004-0.997-0.454-0.993-1.007c0.005-0.785,0.003-1.962,0.002-3.036  l-0.002-1.393c0-0.553,0.447-1,1-1s1,0.447,1,1l0.002,1.389c0.001,1.081,0.003,2.265-0.002,3.054  C30.805,38.694,30.357,39.138,29.809,39.138z"/>
  <path d="M34.187,39.387c-0.002,0-0.005,0-0.007,0c-0.552-0.004-0.997-0.454-0.993-1.007c0.005-0.785,0.003-1.962,0.002-3.036  l-0.002-1.393c0-0.553,0.447-1,1-1c0.553,0,1,0.447,1,1l0.002,1.389c0.001,1.081,0.003,2.265-0.002,3.054  C35.184,38.943,34.736,39.387,34.187,39.387z"/>
</svg>
